<mxfile host="Electron" modified="2024-03-27T19:36:01.938Z" agent="Mozilla/5.0 (Macintosh; Intel Mac OS X 10_15_7) AppleWebKit/537.36 (KHTML, like Gecko) draw.io/24.1.0 Chrome/120.0.6099.109 Electron/28.1.0 Safari/537.36" etag="IrVzyd8g7uh16VtyRJM9" version="24.1.0" type="device">
  <diagram id="j-zg6C667akXYwmQ27tW" name="Page-1">
    <mxGraphModel dx="1242" dy="907" grid="1" gridSize="10" guides="1" tooltips="1" connect="1" arrows="1" fold="1" page="1" pageScale="1" pageWidth="850" pageHeight="1100" background="#ffffff" math="0" shadow="0">
      <root>
        <mxCell id="0" />
        <mxCell id="1" parent="0" />
        <mxCell id="eZC2FQ10_FVVgDrEZ0ag-20" value="&lt;b id=&quot;docs-internal-guid-4c230aec-7fff-2b1c-62a4-25517e6297ba&quot; style=&quot;font-weight: normal ; font-size: 7px&quot;&gt;&lt;p style=&quot;line-height: 1.2 ; text-align: center ; margin-top: 0pt ; margin-bottom: 0pt ; font-size: 7px&quot; dir=&quot;ltr&quot;&gt;&lt;br&gt;&lt;/p&gt;&lt;p style=&quot;line-height: 1.2 ; text-align: center ; margin-top: 0pt ; margin-bottom: 0pt ; font-size: 7px&quot; dir=&quot;ltr&quot;&gt;&lt;span style=&quot;font-size: 7px ; font-family: &amp;quot;inter&amp;quot; , sans-serif ; color: rgb(0 , 0 , 0) ; background-color: transparent ; font-weight: 400 ; font-style: normal ; font-variant: normal ; text-decoration: none ; vertical-align: baseline&quot;&gt;HTTPS&lt;/span&gt;&lt;/p&gt;&lt;p style=&quot;line-height: 1.2 ; text-align: center ; margin-top: 0pt ; margin-bottom: 0pt ; font-size: 7px&quot; dir=&quot;ltr&quot;&gt;&lt;font color=&quot;#000000&quot; face=&quot;inter, sans-serif&quot;&gt;Singed with HMAC &lt;br&gt;scram-sha-256&lt;/font&gt;&lt;/p&gt;&lt;p style=&quot;line-height: 1.2 ; text-align: center ; margin-top: 0pt ; margin-bottom: 0pt ; font-size: 7px&quot; dir=&quot;ltr&quot;&gt;dedicated secure topic&lt;br&gt;short retention (30 minutes)&lt;/p&gt;&lt;/b&gt;" style="text;whiteSpace=wrap;html=1;fontSize=7;fillColor=none;strokeColor=none;gradientColor=#ffffff;" parent="1" vertex="1">
          <mxGeometry x="472.5" y="255" width="92.5" height="65.9" as="geometry" />
        </mxCell>
        <mxCell id="eZC2FQ10_FVVgDrEZ0ag-1" value="" style="whiteSpace=wrap;html=1;aspect=fixed;" parent="1" vertex="1">
          <mxGeometry x="165" y="130" width="260" height="260" as="geometry" />
        </mxCell>
        <mxCell id="eZC2FQ10_FVVgDrEZ0ag-3" style="edgeStyle=orthogonalEdgeStyle;rounded=0;orthogonalLoop=1;jettySize=auto;html=1;entryX=0;entryY=0.5;entryDx=0;entryDy=0;entryPerimeter=0;" parent="1" source="eZC2FQ10_FVVgDrEZ0ag-4" edge="1">
          <mxGeometry relative="1" as="geometry">
            <mxPoint x="145" y="260.25" as="targetPoint" />
          </mxGeometry>
        </mxCell>
        <mxCell id="eZC2FQ10_FVVgDrEZ0ag-4" value="" style="shape=actor;whiteSpace=wrap;html=1;" parent="1" vertex="1">
          <mxGeometry x="5" y="245" width="20" height="30" as="geometry" />
        </mxCell>
        <mxCell id="eZC2FQ10_FVVgDrEZ0ag-5" value="&lt;font style=&quot;font-size: 10px;&quot;&gt;Create secret&lt;/font&gt;" style="text;html=1;strokeColor=none;fillColor=none;align=center;verticalAlign=middle;whiteSpace=wrap;rounded=0;" parent="1" vertex="1">
          <mxGeometry x="35" y="235" width="90" height="30" as="geometry" />
        </mxCell>
        <mxCell id="eZC2FQ10_FVVgDrEZ0ag-6" value="" style="group" parent="1" vertex="1" connectable="0">
          <mxGeometry x="67" y="255" width="30" height="48.05000000000001" as="geometry" />
        </mxCell>
        <mxCell id="eZC2FQ10_FVVgDrEZ0ag-7" value="&lt;b id=&quot;docs-internal-guid-4c230aec-7fff-2b1c-62a4-25517e6297ba&quot; style=&quot;font-weight: normal ; font-size: 7px&quot;&gt;&lt;p style=&quot;line-height: 1.2 ; text-align: center ; margin-top: 0pt ; margin-bottom: 0pt ; font-size: 7px&quot; dir=&quot;ltr&quot;&gt;&lt;br&gt;&lt;/p&gt;&lt;p style=&quot;line-height: 1.2 ; text-align: center ; margin-top: 0pt ; margin-bottom: 0pt ; font-size: 7px&quot; dir=&quot;ltr&quot;&gt;&lt;span style=&quot;font-size: 7px ; font-family: &amp;quot;inter&amp;quot; , sans-serif ; color: rgb(0 , 0 , 0) ; background-color: transparent ; font-weight: 400 ; font-style: normal ; font-variant: normal ; text-decoration: none ; vertical-align: baseline&quot;&gt;HTTPS&lt;/span&gt;&lt;/p&gt;&lt;p style=&quot;line-height: 1.2 ; text-align: center ; margin-top: 0pt ; margin-bottom: 0pt ; font-size: 7px&quot; dir=&quot;ltr&quot;&gt;&lt;br&gt;&lt;/p&gt;&lt;/b&gt;" style="text;whiteSpace=wrap;html=1;fontSize=7;fillColor=none;strokeColor=none;gradientColor=#ffffff;" parent="eZC2FQ10_FVVgDrEZ0ag-6" vertex="1">
          <mxGeometry width="30" height="30" as="geometry" />
        </mxCell>
        <mxCell id="eZC2FQ10_FVVgDrEZ0ag-8" value="&lt;p style=&quot;color: rgb(0, 0, 0); font-family: Helvetica; font-size: 8px; font-style: normal; font-variant-ligatures: normal; font-variant-caps: normal; font-weight: 400; letter-spacing: normal; orphans: 2; text-align: center; text-indent: 0px; text-transform: none; widows: 2; word-spacing: 0px; -webkit-text-stroke-width: 0px; background-color: rgb(248, 249, 250); text-decoration-thickness: initial; text-decoration-style: initial; text-decoration-color: initial; line-height: 1.2; margin-top: 0pt; margin-bottom: 0pt;&quot; dir=&quot;ltr&quot;&gt;&lt;/p&gt;" style="sketch=0;aspect=fixed;pointerEvents=1;shadow=0;dashed=0;html=1;strokeColor=#36393d;labelPosition=center;verticalLabelPosition=bottom;verticalAlign=top;align=center;fillColor=#eeeeee;shape=mxgraph.mscae.enterprise.lock;fontSize=9;" parent="eZC2FQ10_FVVgDrEZ0ag-6" vertex="1">
          <mxGeometry x="7.960000000000008" y="30" width="14.08" height="18.05" as="geometry" />
        </mxCell>
        <mxCell id="eZC2FQ10_FVVgDrEZ0ag-9" value="&lt;font style=&quot;font-size: 10px;&quot;&gt;https://useglint.io&lt;/font&gt;" style="text;html=1;strokeColor=none;fillColor=#FFFFFF;align=center;verticalAlign=middle;whiteSpace=wrap;rounded=0;" parent="1" vertex="1">
          <mxGeometry x="115" y="281.5" width="90" height="30" as="geometry" />
        </mxCell>
        <mxCell id="eZC2FQ10_FVVgDrEZ0ag-10" style="edgeStyle=orthogonalEdgeStyle;rounded=0;orthogonalLoop=1;jettySize=auto;html=1;entryX=0;entryY=0.5;entryDx=0;entryDy=0;entryPerimeter=0;fontSize=10;" parent="1" source="eZC2FQ10_FVVgDrEZ0ag-11" target="eZC2FQ10_FVVgDrEZ0ag-14" edge="1">
          <mxGeometry relative="1" as="geometry" />
        </mxCell>
        <mxCell id="eZC2FQ10_FVVgDrEZ0ag-11" value="" style="outlineConnect=0;dashed=0;verticalLabelPosition=bottom;verticalAlign=top;align=center;html=1;shape=mxgraph.aws3.cloudfront;fillColor=#F58536;gradientColor=none;fontSize=10;" parent="1" vertex="1">
          <mxGeometry x="145" y="238.5" width="35.37" height="43" as="geometry" />
        </mxCell>
        <mxCell id="eZC2FQ10_FVVgDrEZ0ag-12" style="edgeStyle=orthogonalEdgeStyle;rounded=0;orthogonalLoop=1;jettySize=auto;html=1;fontSize=9;entryX=0;entryY=0.5;entryDx=0;entryDy=0;entryPerimeter=0;" parent="1" source="eZC2FQ10_FVVgDrEZ0ag-14" target="eZC2FQ10_FVVgDrEZ0ag-19" edge="1">
          <mxGeometry relative="1" as="geometry" />
        </mxCell>
        <mxCell id="eZC2FQ10_FVVgDrEZ0ag-14" value="" style="sketch=0;points=[[0,0,0],[0.25,0,0],[0.5,0,0],[0.75,0,0],[1,0,0],[0,1,0],[0.25,1,0],[0.5,1,0],[0.75,1,0],[1,1,0],[0,0.25,0],[0,0.5,0],[0,0.75,0],[1,0.25,0],[1,0.5,0],[1,0.75,0]];outlineConnect=0;fontColor=#232F3E;gradientColor=#F78E04;gradientDirection=north;fillColor=#D05C17;strokeColor=#ffffff;dashed=0;verticalLabelPosition=bottom;verticalAlign=top;align=center;html=1;fontSize=12;fontStyle=0;aspect=fixed;shape=mxgraph.aws4.resourceIcon;resIcon=mxgraph.aws4.app_runner;" parent="1" vertex="1">
          <mxGeometry x="295" y="241" width="38" height="38" as="geometry" />
        </mxCell>
        <mxCell id="eZC2FQ10_FVVgDrEZ0ag-15" value="&lt;font style=&quot;font-size: 9px;&quot;&gt;Secret payload&lt;/font&gt;" style="text;html=1;strokeColor=none;fillColor=none;align=center;verticalAlign=middle;whiteSpace=wrap;rounded=0;" parent="1" vertex="1">
          <mxGeometry x="195" y="235" width="90" height="30" as="geometry" />
        </mxCell>
        <mxCell id="eZC2FQ10_FVVgDrEZ0ag-16" value="" style="group" parent="1" vertex="1" connectable="0">
          <mxGeometry x="225" y="255" width="30" height="48.05000000000001" as="geometry" />
        </mxCell>
        <mxCell id="eZC2FQ10_FVVgDrEZ0ag-17" value="&lt;b id=&quot;docs-internal-guid-4c230aec-7fff-2b1c-62a4-25517e6297ba&quot; style=&quot;font-weight: normal ; font-size: 7px&quot;&gt;&lt;p style=&quot;line-height: 1.2 ; text-align: center ; margin-top: 0pt ; margin-bottom: 0pt ; font-size: 7px&quot; dir=&quot;ltr&quot;&gt;&lt;br&gt;&lt;/p&gt;&lt;p style=&quot;line-height: 1.2 ; text-align: center ; margin-top: 0pt ; margin-bottom: 0pt ; font-size: 7px&quot; dir=&quot;ltr&quot;&gt;&lt;span style=&quot;font-size: 7px ; font-family: &amp;quot;inter&amp;quot; , sans-serif ; color: rgb(0 , 0 , 0) ; background-color: transparent ; font-weight: 400 ; font-style: normal ; font-variant: normal ; text-decoration: none ; vertical-align: baseline&quot;&gt;HTTPS&lt;/span&gt;&lt;/p&gt;&lt;p style=&quot;line-height: 1.2 ; text-align: center ; margin-top: 0pt ; margin-bottom: 0pt ; font-size: 7px&quot; dir=&quot;ltr&quot;&gt;&lt;br&gt;&lt;/p&gt;&lt;/b&gt;" style="text;whiteSpace=wrap;html=1;fontSize=7;fillColor=none;strokeColor=none;gradientColor=#ffffff;" parent="eZC2FQ10_FVVgDrEZ0ag-16" vertex="1">
          <mxGeometry width="30" height="30" as="geometry" />
        </mxCell>
        <mxCell id="eZC2FQ10_FVVgDrEZ0ag-18" value="&lt;p style=&quot;color: rgb(0, 0, 0); font-family: Helvetica; font-size: 8px; font-style: normal; font-variant-ligatures: normal; font-variant-caps: normal; font-weight: 400; letter-spacing: normal; orphans: 2; text-align: center; text-indent: 0px; text-transform: none; widows: 2; word-spacing: 0px; -webkit-text-stroke-width: 0px; background-color: rgb(248, 249, 250); text-decoration-thickness: initial; text-decoration-style: initial; text-decoration-color: initial; line-height: 1.2; margin-top: 0pt; margin-bottom: 0pt;&quot; dir=&quot;ltr&quot;&gt;&lt;/p&gt;" style="sketch=0;aspect=fixed;pointerEvents=1;shadow=0;dashed=0;html=1;strokeColor=#36393d;labelPosition=center;verticalLabelPosition=bottom;verticalAlign=top;align=center;fillColor=#eeeeee;shape=mxgraph.mscae.enterprise.lock;fontSize=9;" parent="eZC2FQ10_FVVgDrEZ0ag-16" vertex="1">
          <mxGeometry x="7.960000000000008" y="30" width="14.08" height="18.05" as="geometry" />
        </mxCell>
        <mxCell id="eZC2FQ10_FVVgDrEZ0ag-19" value="" style="sketch=0;points=[[0,0,0],[0.25,0,0],[0.5,0,0],[0.75,0,0],[1,0,0],[0,1,0],[0.25,1,0],[0.5,1,0],[0.75,1,0],[1,1,0],[0,0.25,0],[0,0.5,0],[0,0.75,0],[1,0.25,0],[1,0.5,0],[1,0.75,0]];outlineConnect=0;fontColor=#232F3E;gradientColor=#945DF2;gradientDirection=north;fillColor=#5A30B5;strokeColor=#ffffff;dashed=0;verticalLabelPosition=bottom;verticalAlign=top;align=center;html=1;fontSize=12;fontStyle=0;aspect=fixed;shape=mxgraph.aws4.resourceIcon;resIcon=mxgraph.aws4.managed_streaming_for_kafka;" parent="1" vertex="1">
          <mxGeometry x="405" y="240" width="40" height="40" as="geometry" />
        </mxCell>
        <mxCell id="eZC2FQ10_FVVgDrEZ0ag-21" value="&lt;font style=&quot;font-size: 8px;&quot;&gt;Create secret action payload&lt;/font&gt;" style="text;html=1;strokeColor=none;fillColor=none;align=center;verticalAlign=middle;whiteSpace=wrap;rounded=0;" parent="1" vertex="1">
          <mxGeometry x="344" y="225" width="60.12" height="30" as="geometry" />
        </mxCell>
        <mxCell id="eZC2FQ10_FVVgDrEZ0ag-22" value="" style="whiteSpace=wrap;html=1;aspect=fixed;" parent="1" vertex="1">
          <mxGeometry x="580" y="130" width="260" height="260" as="geometry" />
        </mxCell>
        <mxCell id="eZC2FQ10_FVVgDrEZ0ag-23" value="Customer Env" style="text;html=1;align=center;verticalAlign=middle;resizable=0;points=[];autosize=1;fontSize=12;fontColor=#000000;" parent="1" vertex="1">
          <mxGeometry x="660" y="130" width="100" height="30" as="geometry" />
        </mxCell>
        <mxCell id="eZC2FQ10_FVVgDrEZ0ag-26" style="edgeStyle=orthogonalEdgeStyle;rounded=0;orthogonalLoop=1;jettySize=auto;html=1;entryX=1;entryY=0.5;entryDx=0;entryDy=0;entryPerimeter=0;fontSize=9;exitX=0;exitY=0.5;exitDx=0;exitDy=0;" parent="1" source="eZC2FQ10_FVVgDrEZ0ag-27" target="eZC2FQ10_FVVgDrEZ0ag-19" edge="1">
          <mxGeometry relative="1" as="geometry" />
        </mxCell>
        <mxCell id="eZC2FQ10_FVVgDrEZ0ag-42" style="edgeStyle=orthogonalEdgeStyle;rounded=0;orthogonalLoop=1;jettySize=auto;html=1;fontSize=8;" parent="1" source="eZC2FQ10_FVVgDrEZ0ag-27" target="eZC2FQ10_FVVgDrEZ0ag-41" edge="1">
          <mxGeometry relative="1" as="geometry" />
        </mxCell>
        <mxCell id="eZC2FQ10_FVVgDrEZ0ag-27" value="" style="editableCssRules=.*;shape=image;verticalLabelPosition=bottom;labelBackgroundColor=#ffffff;verticalAlign=top;aspect=fixed;imageAspect=0;image=data:image/svg+xml,PHN2ZyB4bWxucz0iaHR0cDovL3d3dy53My5vcmcvMjAwMC9zdmciIHhtbG5zOnY9Imh0dHBzOi8vdmVjdGEuaW8vbmFubyIgd2lkdGg9IjQyNCIgaGVpZ2h0PSI0MjQiIHZpZXdCb3g9IjAgMCA0MjQgNDI0Ij4mI3hhOwk8c3R5bGUgdHlwZT0idGV4dC9jc3MiPiYjeGE7CS5zdDB7ZmlsbDojNDI4NWY0O30mI3hhOwk8L3N0eWxlPiYjeGE7CTxwYXRoIGNsYXNzPSJzdDAiIGQ9Ik00MjQgMHY0MjRIMFYwek0yMTIgOTcuODQ2Yy0zNy44ODQgMC03MC4xNjQgMjMuOTktODIuNDc4IDU3LjYwOGgwbC0zLjQwMy4wMDFjLTQyLjYzNCAwLTc3LjE5NiAzNC41NjItNzcuMTk2IDc3LjE5NnMzNC41NjIgNzcuMTk2IDc3LjE5NiA3Ny4xOTZoMCAxNzEuNzYzYzQyLjYzNCAwIDc3LjE5Ni0zNC41NjIgNzcuMTk2LTc3LjE5NnMtMzQuNTYyLTc3LjE5Ni03Ny4xOTYtNzcuMTk2aDBsLTMuNDAzLS4wMDFDMjgyLjE2NCAxMjEuODM3IDI0OS44ODQgOTcuODQ2IDIxMiA5Ny44NDZ6IiBmaWxsLXJ1bGU9ImV2ZW5vZGQiLz4mI3hhOzwvc3ZnPg==;fontSize=12;fillColor=#eeeeee;strokeColor=#36393d;" parent="1" vertex="1">
          <mxGeometry x="660" y="245.25000000000003" width="30" height="30" as="geometry" />
        </mxCell>
        <mxCell id="eZC2FQ10_FVVgDrEZ0ag-29" value="" style="endArrow=none;dashed=1;html=1;rounded=0;fontSize=12;fillColor=#eeeeee;strokeColor=#36393d;exitX=0.5;exitY=0.005;exitDx=0;exitDy=0;exitPerimeter=0;" parent="1" edge="1">
          <mxGeometry width="50" height="50" relative="1" as="geometry">
            <mxPoint x="512.14" y="228.00025000000005" as="sourcePoint" />
            <mxPoint x="511.87" y="70" as="targetPoint" />
          </mxGeometry>
        </mxCell>
        <mxCell id="eZC2FQ10_FVVgDrEZ0ag-30" value="" style="endArrow=none;dashed=1;html=1;rounded=0;fontSize=12;fillColor=#eeeeee;strokeColor=#36393d;entryX=0.496;entryY=0.967;entryDx=0;entryDy=0;entryPerimeter=0;" parent="1" edge="1">
          <mxGeometry width="50" height="50" relative="1" as="geometry">
            <mxPoint x="512" y="400" as="sourcePoint" />
            <mxPoint x="511.77000000000004" y="344" as="targetPoint" />
          </mxGeometry>
        </mxCell>
        <mxCell id="eZC2FQ10_FVVgDrEZ0ag-37" value="&lt;font style=&quot;font-size: 9px;&quot;&gt;Create secret action payload&lt;/font&gt;" style="text;html=1;strokeColor=none;fillColor=none;align=center;verticalAlign=middle;whiteSpace=wrap;rounded=0;" parent="1" vertex="1">
          <mxGeometry x="472.5" y="228" width="90" height="30" as="geometry" />
        </mxCell>
        <mxCell id="eZC2FQ10_FVVgDrEZ0ag-38" value="&lt;font style=&quot;font-size: 6px;&quot;&gt;Cloudfront&lt;/font&gt;" style="text;html=1;strokeColor=none;fillColor=#FFFFFF;align=center;verticalAlign=middle;whiteSpace=wrap;rounded=0;" parent="1" vertex="1">
          <mxGeometry x="150.37" y="226.75" width="30" height="8.5" as="geometry" />
        </mxCell>
        <mxCell id="eZC2FQ10_FVVgDrEZ0ag-39" value="&lt;font style=&quot;font-size: 6px;&quot;&gt;AppRunner&lt;/font&gt;" style="text;html=1;strokeColor=none;fillColor=#FFFFFF;align=center;verticalAlign=middle;whiteSpace=wrap;rounded=0;" parent="1" vertex="1">
          <mxGeometry x="298.5" y="226.75" width="31" height="6.5" as="geometry" />
        </mxCell>
        <mxCell id="eZC2FQ10_FVVgDrEZ0ag-40" value="&lt;font style=&quot;font-size: 6px;&quot;&gt;MSK&lt;/font&gt;" style="text;html=1;strokeColor=none;fillColor=#FFFFFF;align=center;verticalAlign=middle;whiteSpace=wrap;rounded=0;direction=south;" parent="1" vertex="1">
          <mxGeometry x="417.5" y="226.75" width="15" height="9" as="geometry" />
        </mxCell>
        <mxCell id="eZC2FQ10_FVVgDrEZ0ag-41" value="" style="sketch=0;outlineConnect=0;fontColor=#232F3E;gradientColor=none;strokeColor=#ffffff;fillColor=#232F3E;dashed=0;verticalLabelPosition=middle;verticalAlign=bottom;align=center;html=1;whiteSpace=wrap;fontSize=10;fontStyle=1;spacing=3;shape=mxgraph.aws4.productIcon;prIcon=mxgraph.aws4.secrets_manager;movable=1;resizable=1;rotatable=1;deletable=1;editable=1;connectable=1;" parent="1" vertex="1">
          <mxGeometry x="735" y="240.5" width="40" height="39" as="geometry" />
        </mxCell>
        <mxCell id="eZC2FQ10_FVVgDrEZ0ag-43" value="&lt;font style=&quot;font-size: 6px;&quot;&gt;Secrets Manager&lt;/font&gt;" style="text;html=1;strokeColor=none;fillColor=#FFFFFF;align=center;verticalAlign=middle;whiteSpace=wrap;rounded=0;" parent="1" vertex="1">
          <mxGeometry x="730" y="226.75" width="50" height="15" as="geometry" />
        </mxCell>
        <mxCell id="eZC2FQ10_FVVgDrEZ0ag-47" value="&lt;p style=&quot;color: rgb(0, 0, 0); font-family: Helvetica; font-size: 8px; font-style: normal; font-variant-ligatures: normal; font-variant-caps: normal; font-weight: 400; letter-spacing: normal; orphans: 2; text-align: center; text-indent: 0px; text-transform: none; widows: 2; word-spacing: 0px; -webkit-text-stroke-width: 0px; background-color: rgb(248, 249, 250); text-decoration-thickness: initial; text-decoration-style: initial; text-decoration-color: initial; line-height: 1.2; margin-top: 0pt; margin-bottom: 0pt;&quot; dir=&quot;ltr&quot;&gt;&lt;/p&gt;" style="sketch=0;aspect=fixed;pointerEvents=1;shadow=0;dashed=0;html=1;strokeColor=#36393d;labelPosition=center;verticalLabelPosition=bottom;verticalAlign=top;align=center;fillColor=#eeeeee;shape=mxgraph.mscae.enterprise.lock;fontSize=9;" parent="1" vertex="1">
          <mxGeometry x="505" y="320.9" width="14.08" height="18.05" as="geometry" />
        </mxCell>
        <mxCell id="eZC2FQ10_FVVgDrEZ0ag-48" value="&lt;p style=&quot;color: rgb(0, 0, 0); font-family: Helvetica; font-size: 8px; font-style: normal; font-variant-ligatures: normal; font-variant-caps: normal; font-weight: 400; letter-spacing: normal; orphans: 2; text-align: center; text-indent: 0px; text-transform: none; widows: 2; word-spacing: 0px; -webkit-text-stroke-width: 0px; background-color: rgb(248, 249, 250); text-decoration-thickness: initial; text-decoration-style: initial; text-decoration-color: initial; line-height: 1.2; margin-top: 0pt; margin-bottom: 0pt;&quot; dir=&quot;ltr&quot;&gt;&lt;/p&gt;" style="sketch=0;aspect=fixed;pointerEvents=1;shadow=0;dashed=0;html=1;strokeColor=#36393d;labelPosition=center;verticalLabelPosition=bottom;verticalAlign=top;align=center;fillColor=#eeeeee;shape=mxgraph.mscae.enterprise.lock;fontSize=9;" parent="1" vertex="1">
          <mxGeometry x="39.92" y="40" width="14.08" height="18.05" as="geometry" />
        </mxCell>
        <mxCell id="eZC2FQ10_FVVgDrEZ0ag-49" value="Value is passed securely, is not saved, does not get printed to log and does not appear in audit log" style="text;html=1;strokeColor=none;fillColor=none;align=center;verticalAlign=middle;whiteSpace=wrap;rounded=0;shadow=0;fontSize=9;" parent="1" vertex="1">
          <mxGeometry x="54" y="34.03" width="406" height="30" as="geometry" />
        </mxCell>
        <mxCell id="Pa4ohcyduiNPW6pdYtee-2" value="" style="shape=image;verticalLabelPosition=bottom;labelBackgroundColor=default;verticalAlign=top;aspect=fixed;imageAspect=0;image=data:image/png,iVBORw0KGgoAAAANSUhEUgAAArwAAADICAYAAAAKljK9AAAAAXNSR0IArs4c6QAAIABJREFUeF7tnQuYXFWV79c+3XlBQgJhVJ4CIldHBkEEBFESrzA+7xUVR1GujONleHQl6aoW0XFMtTryCVXVoatBxKuCXBTF19zrYwxy0xmE4AUhDCIqIJCAPPKg84Ak3dW1h326TuXUqXPq7H3ej//5Pj9i1z57r/1b+1T9a9XaazPCBQIgAAIgAAIgAAIgAAIZJsAyPDdMDQRAAARAAARAAARAAAQIgheLAARAAARAAARAAARAINMEIHgz7V5MDgRAAARAAARAAARAAIIXawAEQAAEQAAEQAAEQCDTBCB4M+1eTA4EQAAEQAAEQAAEQACCF2sABEAABEAABEAABEAg0wQgeDPtXkwubwSG1ly+pGvOTer4G2fsDBsu3ff5gzduvZ1xvrarS430dpWln+lq72943A0CIAACIAACewlA8GI1gEBKCHSI2SYtsQjXoAVrnFR08dshkCGM4/QHxgYBEACB1BOA4E29CzGBLBAwi1nO2UrTnLIkZINy1XhbDGs0juhwUFjRDwiAAAhklwAEb3Z9i5klkEBb2HZGaCFqg/HVXiH8i6fGK5UxpEkEwxW9gAAIgEDqCUDwpt6FmEASCejCFqI2PtdMNdfz1U8fT4wNCyNqldFyfMZgZBAAARAAgbgJQPDG7QGMn3oCELcJdeE9W9fzZ3cdb1jHicYZY2s1aiL6m1CXwSwQAAEQCIsABG9YZNFvJglA3KbIrUaU18lkxoYR+U2RP2EqCIAACPggAMHrAx5uzTYBI9/WtIkMubYpczn/2VPuFiPtwZ0RWoAACIBAyglA8KbcgTA/OAIQuMGxTExPlrSGXnYZKQ+I+ibGezAEBEAABAIjAMEbGEp0lEYCQuQigptGz0na7JbW4NQN0h0kAaMZCIAACKSDAARvOvwEKwMiYIniIkUhIK6J7kYhytsxD4jeRLsVxoEACICACgEIXhVaaJtKAojiptJtwRntNcprWADhG5wv0BMIgAAIxEQAgjcm8Bg2XAImkYsobrioU9G71Oa1XjOB6E2Fn2EkCIAACDgRgODF2sgMAURyM+PK4CfiNa3BZInY1DZSrS8N3jj0CAIgAAIgEDYBCN6wCaP/0Akgmhs64vQP4DetwSCASG/61wJmAAIgkEsCELy5dHv6Jw2Rm34fRj0D32kNEL1RuwzjgQAIgEBgBCB4A0OJjqIgAKEbBeWMjhFAWkObDCK9GV0kmBYIgEBWCUDwZtWzGZvX0G2XlzljKzM2LUwnSgJBpTUg0hul1zAWCIAACARCAII3EIzoJAwC5mjuvL6p9dYxDp+3aZv5b8fO/8tCa5tj5j9zvF/bHn2xSY++yB27mW7O7rLNaLx9enGHjeLvWycP77BzYuoVvm30O8fc3B9klJeINMaXVipj47nhh4mCAAiAQEoJQPCm1HFZN3vTxtOXME5rkjBPN8EbpI2GeLYKZUMkQxz7pB2w4EXlBp/+wO0gAAIgEBEBCN6IQGMYOQItoStSFxJTP3frFKd7tjXlJhBhKyGOzcJYiGIIYhcHBJ3WIIZDPm+Eqx5DgQAIgIA3AhC83rjhroAJJFHoGlNMquB1c4FZEEMM76UVWLUGkwOQ2uC2GvE6CIAACMRLAII3Xv4YnYg2bzhdpC4kJqJrdUpaBa/T4sq9EA44rUFwRmoD3spAAARAINkEIHiT7Z9MW5ekPN1eoLMmeJ3m+vzUQWvFa5mPBoeR1iDAIbUh0+9XmBwIgEC6CUDwptt/qbU+6VFdM9i8CF7rYjJHgv/8wslnpHax2RgeRlqDGAapDVlaJZgLCIBAlghA8GbJmymYS1qiuhC89ovJiAKnXgCHkNYgiCG1IQVvQjARBEAglwQgeHPp9ngmvemJ08uMUSoPj1i9eToeaAkeNdXiN6y0BkR5E7xiYRoIgECeCUDw5tn7Ec49zWJXYILg7b1YjPSH1ER+QxS8iPJG+MaCoUAABEBAkgAEryQoNPNOIE35uk6zhOCV939qIr8hpTUIUsjllV8vaAkCIAACURCA4I2Cck7HSHJtXVWXQPCqEptpL8RvYqs+hCh4EeX1tl5wFwiAAAiERQCCNyyy6FfU1+VZwQDB68+TQvgmLt0hxLQGRHn9rRfcDQIgAAJBE4DgDZoo+tMJZCGNwezKuyaaE9sbfBHc649A0oRvWOXJDEq1ah3vsf6WDO4GARAAgUAI4M04EIzoxEwg7RvU7LwJwRvcGk+U6A0xrUEnhsMogls46AkEQAAEfBCA4PUBD7d2E8ii2BWzhOANdrWLqg7rt7/z+GB79dDbAxM3NDe88Eq7Oxlj+slzdpdGzfFeo1UqYz1f92ApbgEBEAABEPBBAILXBzzc2kkgq2JXzPLRF5v06IuZSUlOxNINWPR2CEzG+YxY1ajj75Wln4EQTYT3YQQIgAAIREsAgjda3pkeLUub1KyOguANZ+lKiN62QNVFrEnAQryG4xP0CgIgAAJZJADBm0WvxjCnLEd3EeENbUHpYvbZyaP+9aldx643RoGQDY03OgYBEACB3BKA4M2t64OdeJaju4LU1ilO92xrBgst+73pgpZztlbT9ua8fuSEu5BWkH3fY4YgAAIgkCgCELyJckc6jcl6dBeC13Vd6gKWMT5stISodWWGBiAAAiAAAhESgOCNEHZWh8p6dBeCt71yO4QtRG1Wn2jMCwRAAASyRwCCN3s+jXRGeYjuGkBzdNpaVyoCxG2kjxUGAwEQAAEQCJgABG/AQPPWXR6iuxkXvB3iFsI2b08w5gsCIAAC+SAAwZsPP4cyyzxFdwXAjER4kZYQytOATkEABEAABJJMAII3yd5JuG15E7wpPW1t3KiSgOhtwh8omAcCIAACIBAaAQje0NBmv+PNG05fQ0RLsj/TmRmmRPBC4OZlQWKeIAACIAAC0gQgeKVRoaGVQJ7ydxMseNspCojg4hkFARAAARAAAXsCELxYGZ4I5C2dQUBK0PHCiOJ6WrW4CQRAAARAIK8EIHjz6nmf886j4I35tLVx42AHRHJ9Ll7cDgIgAAIgkDsCELy5c3kwE85bOoOgFoPgRSQ3mOWKXkAABEAABHJOAII35wvA6/QheL2Sk7pPj+YikivFCo1AAARAAARAwJUABK8rIjSwEti08fQljJOo0JC7K8RavBC5uVtNmDAIgAAIgEBUBCB4oyKdoXHymL9ruC8EwQuhm6FnA1MBARAAARBIJgEI3mT6JdFW5VnwBliLF0I3plU+NDSwZO4iOn/2AjpCmDCxUdNLu1kvzvkZbiYymzrUnGh8pFpf6nYvXgcBEAABEIiOAARvdKwzM1LeDpwwOy4AwQuhG9OTcOPdF5fF0Ds30cqHb+sL1QqN8aWVypitkA51YHQOAiAAAiBgSwCCFwtDmUAeN6wZkHzU4oXQVV5pwdygC13GVxq97XyOUdiCF1HeYHyHXkAABEAgKAIQvEGRzFE/eRa8XkqTcc6GP3rinXp0EVd0BFpCV6QldB1/LQSvEL5hXojyhkkXfYMACICAGoFw3/HVbEHrlBCA4G3KegpRXVlSAbezRnWt3UcheBHlDdip6A4EQAAEfBCA4PUBL4+35rkkmfC3bIQXUd14ng43oWtYFUVagxgLUd541gFGBQEQAAErAQherAklAnkXvAKWW2kyxvhSHBqhtKwCaSwrdsVgUQleRHkDcS06AQEQAAHfBCB4fSPMVwd5LklmeLpXpQaI3eifBxWha7YuirQGRHmjXw8YEQRAAATsCEDwYl0oEYDgJXISvBC7SkspkMZexa4YPCrBiyhvIK5GJyAAAiDgiwAEry98+bsZgpfIrjQZxG60z8KNd1+4hBgTpca6KjDIWhJVWoOwp1at471W1jFoBwIgAAIhEMCbcAhQs9wlBG/3xjVsUIt2xfuJ6potjVLwYvNatGsEo4EACICAlQAEL9aEEoE8n7JmgLJUahg/9w3rcIys0iry3jgosWtYcN93+70bo3An0hoUYKEpCIAACIRAAII3BKhZ7hKCd8a7RqUGpDJEt9pbaQxrghwxqjxeYTOivEF6Dn2BAAiAgBoBCF41XrlvDcG7V/AilSH6x+HGey7iQY4apeBFlDdIz6EvEAABEFAjAMGrxiv3rSF4Z5aAqNSwbYquwpHB0T4SQac0RJnHK0hh81q06wWjgQAIgIBBAIIXa0GJAATvXsH7nuPu3F8JHhr7JhB0WkPUgjeJaQ1DQwMdlS4qlbFx345CByAAAiCQMAIQvAlzSNLNgeDd66EDD/81np8YFmzQUd6oNq4JVHGmNQhh2yRtCef8DCZZzk3Yyxhbq1FzPCwhXBxaVnZbRmGO32vswV9dfhSR5roplWl0cO1tn/6i2zz0tetynXfSNa5t3Ppwe13GDtFHL1tExR63cXq9fuvth03cs/6vFjm1icvnfuaEe5NNAB/YyfZP4qyD4J1xybqJ/hvee9z4+YlzUA4MClrwRpnHK9wTZVqDELnTnK2UFbiuy4exYX0OlVFfYsc8TrFUcM/LZmw4yDFd59lqcPGa8vx5fO4O1/aM7q4uvezkXu2kf53gbDhs0SuZCz9+3hu/6ij2N2843d1vLuB+9LMj1z7x5PyFu3b3H+/U1PjSFYf/Xf2OBqkiAMGbKnfFbywE74wPLv/zvMerS249Mn6P5NMCyQ9sKThRC94o0hoCF7p2JAMSoRC8NnA5X3reSdeGlloi+fyELniNmQvh+4dHFp3R64EVwreP8WG/vzSIZ8NvH1JvLGiUOAIQvIlzSbINguAVJ6310TUb59ANZ67G8xPTcg0yyhu14A0zrSESoWv2eQARXwheh4coRNGbNMErCMiIXtHOyxdG47kQ95t/7UD0OKY38JiGxQd2TODTOiwEL9FPnpv9+O3P9x/BSFt6/Zn/FloUxrxGvnvfm5Y0m5q+uYgxfgbnbK359TirRVhtE3aZ7QvLNskPbddH7ekHNHrmd5pruyAbhJHWoOfCci6OW47+8hHtheB1dFfPCKsfJ0s+O5FFeI25jHztb9b3Sm8w2sk+P+YvgELcivtFlFjkss+8T83kswcVPfbjE9wbPgEI3vAZZ2oECN6ZdIbNU+wIRjR8/ZmrA8tltC4UISQ5Z0LAdOyid1pQoi6weC0sgWkV4Cq2vTSHcSGCg7QtqChv1JUavEapnPweeVTXyRCPoheCt8dHREj5vEkVvH96dOH6H/z0KMd8XoOUzK8k+iZNzmYOqumxNs1fFL1EjzP1AZ/xyUDwZtzBQU8Pgpeo9Md9Zt5DQxK8qkLX6uMwha9f22aiKmw4KOEr+cHd8zGIQ/DKfGDLPLsdH+oyN4Tcxsu8IHhdnBJCaoPkcxN5hFeQCCrKO1gqrBHRW0PEupXfM9rLRo9DfpTQfQgEIHhDgJrlLvMueI383Rkf8/EbzrzVtWSRynr4zr2nioiEVETXrd8ghaUY66bfnlZmLLCfzMfPfcM63+yCiPLGIXgFT78frEkTu+31qBjpheB1e5L1b4mBbmLLguDtFY1tR21Na7FUKnQcS/7Sl7O2GBYeMJ4nL1/aJDyIJgkgAMGbACekyQQI3pkNa8YV1Ma1ICKndusoKNEbpBA328kYX/qRE+7ynAcdhOAV9kRZi9eYv9+fT6WEYtRvLopiV5gnNQ8P/QYx9VjKktkbHmg+b5IFr2xaQ0/BK0rdWdaMELzMVOVBiGLG+RnVar39xdsQyn6fzSDWHvoIngAEb/BMM91j3gXvLzfPotVbZgUqeFtityP64LSIfr/rMHpo1+H6y6+dt4H+et5GmfXmK5oqK3aFbeIS9inYJjbh+RO991zkux5o2gSv8fOrjPNtvwi1SjwZrxllmoyffVUPqND78ShKIXglvRhgPm8WBK/Temv/8uEieAV1qwg27oXglVyTKWsGwZsyh8VtrjhdhzGKZyd43JMnolWPz53YuEdrnw4URKWG79x7ak/B9qWnPqzP3BCUVgxC9L523kb6wAF3OBLyGul1S2P44dY300O7DnO0TRj0gQPu7Gmb2NDmJ70hiChv1KXJBBevP516rcbgdSe61Hgexa7gAMGr8MYWkOgNQvD6PWnNadb6CWz3HTjiSsVhzRnr1Zoy5CRure309ehjPbvajQaxEYDgjQ19OgeG4LUKXn+VGnoJSiFwDbErs1qE8H3/AXc4Rn1VRa+bbT/a+uaeQtdqs4vw9Sd6fUZ54xC8go9qHq+U+LSA9yp0rf5zHNunOIDglXm6TW0CyOcNQvAqWq3U3M+a6CV4rUZwxtZaT3ATv56IdiOmVAcl49E4sQQgeBPrmmQalnfBa5QkM7zjp1JDL0EphK5TRNdtZfQSlue+YZ30M+8UeRZR3R9uPc3NDNvXe9nmJ7XBb5Q3LsGr+tOpquD1GkV2cm7XRjmfYhcRXk+Pke983iwLXqe0BBHhFQJXo6YokbjSnM9r9gIivJ7WZCpukv7wS8VsYGToBPIueI2SZGbQXjeuhSEoDbs+d8jNtpFe2Sivkxj3I3YN20QkWthnc3mO8qZV8Kr8dKoqdlX6VnnjcMqRVOmjS2C43RyAsHYbwu71BG1a6zTPZ2pDXgWvIXKdRHHQa9vLmsM94RGA4A2PbSZ73rTx9CWMk9QGqywCCErw+hGUpz75GD253/60cb92KjG9eb+NdMf2mU1jxvWdo6+0dYFMJNVJjJ/7yKd6uvWw7RPt1w377GxzEuQytjkZIPkhbnt7XBFelQis1M+8rdmp9Bv3cyo1Lwjebjf5EL2Sz4rvSLLXteV3TYj7rc+ASpUG1VQjr/PEfdESgOCNlnfqR8uz4O2swbvXlV7SGpwEr5OgFCL31Kce71o/r37TTjrnlIfbf7/iyVNJ/E9cTpFUN1HpRYw72Xf+BQ/TwfN26vaYbRP/30GQxxLljeN4YcNpMh+uqjV3ZfpMypuRX3ET5jwSG+E1Ju0xnzfzgrd1zLY5ZUj8QmLN1zX/za52b5hrC31HTwCCN3rmqR4RgndvDV7DkV4Er10E1SldwElMivGLF/4HzZ0z3V5TIsr7339/Tvv/O0RSe4pKO8HrZJuI6J7z0H22a/pjH3yYDj9kRuwal7DNiEQ7CXKVPGNz337SGuIUvDJ5vErpDDFFQ72+sUHweiWn3+cpCpt1wSvAWE9a60XZ/IUyTV8Wfa2cHN4MwZtDp/ud8uYNp/uue+rXhjjud4rwqp645lR3126jWi9BKRh8dnm32DzwrmIbj9MmsV6iUkWMF3/jnN1iFePCKBnB6xaB7uV7yQ/yri6SLnhV6u6m7QMbgrdrOYqDWFROW1QWvZLPiXK/Qb0vB7EmOn4V6fEl0PxlUubLZ1BzRD/RE4DgjZ556keE4O12ocrGNZV0BhE9NefFWke+5O8fpIX7Tbb/bE0b8BJFtRO8dmLczbaTT9hEb3/rkx0mm8W4eMEurUF2Y53dg+Q1yhun4JXJt5USAAJIyqK7wmSpucU0r1hSGjgb1te2yjHeivm8eRC8xvuDWdCKZ40xtla8xjk/g7W+WMg8g6n/4MYECIIXi0CZAARvNzKVAyjsBK9Tzd1eEVTDivee9YQuev+yaz69Z/O5XcbZiUqnKKpT9Nkut9hN8ApDRFqDuBYumKRX/X6gyza7lAsI3k5MKukMaYvuQvDavP22xKvylzeFfN48CV59jYmcXhuRK/7WZzpuWPnDEDekigAEb6rclQxj83q8sHNKA4lvjsPXn7laf1N1u2RzZN3SGezGqZ3SPha+/bKdqAxC8MqIcbONt7z2hI7KEuI1LznGbnwlP8w7uokzwisM6SVUZQVvWqNUiPBaVrQpWnvjPReJnCHZ9AbpFATJZ0S6P7dnUvX1JK8J1bmgfXIIQPAmxxepsQSCt9tVfgWvXYRXVfCKMmBCVFqvsCK8QQheuxxjPxFeMXflyBgRxS14e+UOSufvxvSzv983riSLm7hSGs476Rr9y/ONd1+4hBhTKQMpJVIheP2uWtyfRgIQvGn0Wsw2Q/DaO0A2jzfolAbDGjvBq1qaTGVDXa/qEbLR56BzeL0K3rjq8BqckiJ4jZ9+w3iLsZaEMsaA4HWO8HoSvRL5vBC8Yaxw9Jl0AhC8SfdQAu3L62lrvVIahJtkBa9KnqyKqLRLGQiqSoPdpjUV21Siz34jvLpIuOcipUoicQveXpvNpAQhEQWxw1x2LNW3pV7pFlJjxhS9jjvCa3BW/tXCJZ9X8vmQiharrgWZ9kleEzL2o00yCUDwJtMvibYqr7V43QSvbFqDShRVLASZ1AEnQelR8HblDTptqpMVvXa5xarRZ5WHQlUgxC14fQtCCF6V5SHdNimCt/UlTiWfl85741cdP98heKWXABpmiAAEb4acGdVU8ip4BV+7o4UN7rKCV7T/zr2nSotKkcv7pqcecyxPtu6QI2jdoUfaut9LyoCKbWLQXtUahBC/65Ajuzarifu8iHHZNQ7BK0uqs51UZM1b144b86TGzHmEVxe8AebzQvB6XMS4LdUEIHhT7b74jM9rabJegld4QzatwU5UivvtUgcMLxvC1/j/Ty5YpP/TSew6CUq3lAGnCLTTaWvCBrNt4t9ChIdhm8qKl/xQ17u877v9Kl2H0tapUoOUIESENxSfJCnC60n0OuTzSj4bSGkIZVWh07gIQPDGRT7l40Lw2jtQth6vk6h0Sh1QXS5OYlf0I3N0rxdBrmKjXeRZ3O/nlDXr+ColnZIseGWrNCCHV2UFyrVNmuCdEb0Xl9UOpeBLzzvpWnF6W/uC4JXzP1pliwAEb7b8Gdls8lqpYdXjcyc27tFmQqs2l9+0BtFlr0iqrIOdBKVbdNfoP0xB7jXyLDt3o52sMNj5HCORwxv35SRYZQVvEKesyUaTlVn1Otq1VHDfYIiUhg7kKl/m9Bstm9ggeJVXMG7IAAEI3gw4MY4pQPA6UefjN5x5a/fpDzbNnUSlH9ErNoK9/4A7SPzXesmKXeM+pyivV/t62Sb6lIk8q651mQ/2rAjeIA6egODtXGFJjPC2v9CpVSLpSE+QeS5eOvACKQ2qbzhon2gCELyJdk9yjctraTK3CK/wmGwer2hrV5PX7HWVaG+vNAbRp2q6QC9Brip63WxTFeOyT4bMB3vch0605+IQxZQ9aU304/doYRFNlmWrrynZU8AQ4ZXfdCZRR1ewV97E1nmCm3tUHYJX5VFA2xQQgOBNgZOSaGJeKzX8cvMsWr1lVk+XqKQ1yIhekdf70K7D9TF/uPW09thGFFdEdMVlF9U1GnsVlG6i1xC+4r8P7TqMhK1mW8K0Tea5kElrSLrgHRoaWNLkcqdtBZHHK8PVaCMrxnvZJRVVRkqDrVtk1nfHja3UBpkvgojwqjwJaJsGAhC8afBSAm2E4HV2iqrglRG9fpaAV7FrjOkWhY7TNrexZQRB3DV423PwGwUVHUUsDKXEqkvkWaqPiOdl+CTJKQ2GjV7yeSWPK0ZKg9sbDF5PFQEI3lS5K1nG5rFSg0yEV3hJJa0hTGGpmsbgtMLCEL1+hbjs0+AWzUpChQYxl145uNIb1wIqTybDVja66ybCIXgttCVTGsx3KYpeUbFhiYSPIXglIKFJeghA8KbHV4mzNI8b19xOWzOc5EXwBhzpHWeMD3/khLs6yhH5WUQivaHZ1JYwxlf66Uf8VBq0bb3s6SUGkrJhzU3wqqQ1BLF5Tca/ELwmSozuri697OSe61D24Agvgle2bxnH7m0DwavGC60TTgCCN+EOSrJ5ELzO3vGS1mDuzUdENXQx6cM2iiqq2xH96lG3NDH5uy4RXjEfqUhoa+JR5PLK2uO2kU6qH6Q0uH4UyKTvuHbS2QCCVxEYmiebAARvsv2TaOvyWqnB7bS1GafJlyfr5WQhLsXrLlFVPYobZdRUjKcQ8Q1dhPeOrDkX6k+T4FVJaxA8whS90rZICFUIXsvq9RDhNXpQTG1w+3yB4HUjhNdTRQCCN1XuSpaxed24Jid4veXxunlYiExzmyBTFtzGlnndbF+SbHPK401K/q7Btlc0VCWtQf/KRTQ+Uq1L1YSW8a3RRjqVYeZb2HCtMqp/aXO6IHiDE7yipwBFLwSvyoOBtoknAMGbeBcl18C8Cl6ZWrz6Zz3R8PVnru75YZ9c72bLMicRkCbBKzyiJDZbLgwy0qs0voTY1eeEk9Y6HzYfEV5d8AaXzwvBm623wdzPBoI390vAHwBUaujFL5i0Bn8ewt0zIqA7rSFJ6QyGl9zyXaUFotXtkuLTabWI6PI0ZyulD5rQv/G5R3el58PY8OS7TwpsA6Z5nmNLz3PsNw1lyex8FlA+LwQv3j4zRQCCN1PujH4yedy4JluaTHjDa7WG6D2Z7REzJXiHlpWJe6yUwdiwRs3xSmVMSjx6EroKYldW8PLZ/esnzzrx+DBWKSM+PLb0PNtfYtIqeJ2+5Cnyg+BVBIbmySYAwZts/yTeujxuXJMtTaZ/7iOtITFr2JrHm7R0BgFKJsKri0Q/otfwCGPDxj+FCBb/bpK2hHN+RmvtytRq7fKvau6wTEoDBK+3x8hnPi8ErzfsuCuhBCB4E+qYtJiV1zxe2Y1rELzJWclmwZvEdAYVwRuY6A3BPbKi3RhatuLDnvecEoK14ktpNiO8M1HeC5dInqpmxxaCN5QVh07jIgDBGxf5jIwLwevuSKQ1uDOKooU5rSELglcwkxWLUfDVx5DM2zXbIzuHxknHrJ9++f6BpzVkWfDOiF7nsnwu6wKCN7IHBwNFQQCCNwrKGR8jjxvXZCs16BoAaQ2JeALMH/xJTGdQjfAaUANJbwjAQ16rQciWWwsrrSHrgteH6IXgDeC5QBfJIQDBmxxfpNYSbFxzcx2qNbgRiuJ14+fdpEZ3VXNfzcziFL3C7j7Gh2U3wtn5Os4obx4Ery5677lozUvHeqvkZUPwRvHGhDEiIwDBGxnq7A6Ux41rKpUaZqK82tLrz/w3qZ3x2V0p8c9M5PHnoXmWAAAcoElEQVQmNbrrR/AKsp4rKvhwi1+bO0S7RD3eMKK8uRG86vm8ELw+ng3cmjwCELzJ80nqLEIer7vLkNbgziiKFpd/7ZLHNv1JOyKKsVTHCEo8RhHtDSKqa+UTV2pDXgSvHuVVE70QvKoPMdonmgAEb6Ldkx7j8pjHK1upwfAiNq/Fv56/cNXA+MQGppfdStzlYcNXrzmEJnwDttM6Bxm7RaR3+vVHURCb2PIkeGdEr/QmNgjexL1JwCA/BCB4/dDDvW0CeczjVdm4JkAhyhvvAyMjpGK1MCQhqUdOW/V1lU5Ka8EQ0VzxT795uqpsDbvFfUZtYGsf08cd+YT42/ThL3ulav9Ge0Z8bc+DJ2jedmGAS/9PV9922aG92khHV30eLSzDQTKfNzbBK3K63ebBGFtbq4zi6HY3UHi9TQCCF4shEALI43XHCMHrzijMFnkVvLYRVEPMtg6ZsLYRYkL8TeVUtjB9F1ff5QfLs8uvK0/GNT7GBQEQCI4ABG9wLHPdUx7zeFU3rokFgrSGeB6TxItdIS4ZX+qn0kE8ZDEqCIAACKSDAARvOvyUCiuRx+vuJkR53RmF0ULm+NowxlXpU/WEMpW+0RYEQAAE8k4AgjfvKyDA+ecxj1d14xqivAEuOMmu0hDdDapCgyQSNAMBEACB3BGA4M2dy8ObMPJ45dgiyivHKahWaYjuejmSNyg+6AcEQAAE8kAAgjcPXo5ojsjjlQeNXF55Vn5apiG6q88vpAoNftjhXhAAARDIEgEI3ix5MwFzQR6vnBMQ5ZXj5KdVasQuESF/14+ncS8IgAAIuBOA4HVnhBYKBJDHKw8LUV55Vl5apiKVoTUxCF4vHsY9IAACICBPAIJXnhVaShBAWoMEpFYTRHnlWam2TFN0F+kMqt5FexAAARBQJwDBq84Md/QgAMGrtjwQ5VXjJdO6OFQYJ07JPD7YZgKovyvjVbQBARAAAX8EIHj98cPdNgSQ1iC/LBDllWfl1lI/ipZr3yLiR7i1TcrrKEeWFE/ADhAAgawTgODNuodjmF8eo7yrHp87sXGPtsgLbkR5vVDbe48udElbQpyv9NdTDHenpDpDsVh4E2fsv/QixPj0lr4+7aF99138WLlcbsZAs2PIwcFLXkf92iEL9138K0l7WKlUOLvJ+NyF8w/8frlcbsQ9h6yOXy6fP3f7zgXnMc7mTk7ym+v1+ibJubKhoYEzGqx/YtWVq9ZL3oNmIKATgODFQgicQB4Fr5djhg3wiPJ6W4JC6E5ztpIRLfHWQ/x3pWGz2mWXXbT/5FT/VgVa2xjRJ6rV+o8U7gm0abE48GVi7DOtTh+sVevH9hqgVCodyGlyHREd3fpk/HatUv94oEahszaBwVLhFkb0Qf0PnDbst9/iV8l8wSiWCvcQ0YkzPmJfrFVGPw+sICBLAIJXlhTaKRHIW1rDoy/20TUb5ygxMjdGlFcOnRC5omXahW7rA3u4Vhkty808vlbF4sWHEevb0LJARD3/3GUNp7nE6GAi6jde48TOH6mO3hCH5cVSYQcRzTfG7tPo6CuvrD9qZ8vQ0IUvm+azfsuIDjW9/lytWn95HLZnfcxi8ZJjiGl/NM+TEX2sWq3f1Gvun/pU4VXTTXrE1GZbrVr39Kta1hljfvYEIHixMkIhkDfBKyB6OWbYgI8or/MyNFIWOOdnpDma2zHDlKQyCJvNgpcRva5arf/eyVuDQ4X3Mk7faYnNxtQkLa7X69tDeZPp0WmxVJgyi2+Naa+vVK76D+sty5cvf3lff/M+IjrI4h9ED0NyWnGocC1x+kdL9w/UqvXjeg05NLT8uCZv3m9q06hV67NCMhPdZpAABG8GnZqEKSGtQd0LEL0zzDIVxXVYBmlIZTBMVxG8+he/0sA7ObGf6/dz9vZabfQ29afB3x0ygnfFihUHaX3Tv7WKXUb85gULDvyoZN6vP0NzdvcF5Qv2mb9jzjbzl5E2Ak7H12p1s6DtoAPBm7PFEsJ0IXhDgIouZwjkLcrrJ4/XWDN5TG0wC1zBITNRXIc3grSVIVMVvGLahuBkxIvV6thI1O+JboJ3cHDwEKY17iWil3XYxunrtVr9gl72Dg0NHNlsaueSxo8hTocwoi1NokcYp/9bq9Xv6nWvENmzZzd6fu7u2sWmrJu4xCavHTsWnM0Ye6BSGf2dGKNQKMyZPZuJPOM3ccYPIk5bGLHfMDb7m5VK5QXDDtFu1qzmmaRpS4nTCYxoExH/7fR0/3WrVq2acPNNuVzu375989lE7DRi7GjifDZj7M9Nat4/q2+fm6644gqRPiJ1DZYGLmTEvurQ+KZatf4xp44geKUQo1EPAhC8WB6hEcib4BUg/aQ1tMTe8PVnrk58XqfXRWOIW1FVIVMpCrJAUpTKYEzJo+CdyaHlbKBWG73a6KtcLmvbd2x5kIi0/RYsfm2vKGqpNPA+Tux6RmyoWh39X7KIzYLbuMec0nDppYVDp6dpPSdabBG7q2q1+qDTOLpI7mvc5FLj+THidK5V+Iq8Vca0O7vGdJ7U3bVq/RR9SxcRK5YKT7Uj0Zw+zvvoGdak7xPRQpsutmmMn1CpjD1WKg28hnP2S2J0uE27hsb4MaKd45xLAxczYl8x50Nb2jaI+Fd37pgsXXfddSKNpOdVLBVE/veRTo2a0337O4lwCF43unjdjQAErxshvO6ZQB7TGn7y3OzHb3++31cd2KykNuRe3FqfnBSKXV08mjatueXwivaDg4MHMK2xRfybN/lxIyNjDxgozK9NTdLLepWjKpYGRolYgRF9v1qt/53KG5FThHf5p5cf3t9o3msVnozoS9Vq/Z+dxiiVlp/OqXkrEc2VsoPThbVa/WtG21KpUOFEJal7W42arHnaqsrV61Z86pI3aE1NpF5IX5zoB31M+2KTN8V97Y2EXUuSaF21Wj/N+nf9i8nOrd8nzj8gOeifGM1+c7Va3ezUvlhcdhoxfofpdZHa0NchphldVqvUhcDuuiB4JT2BZo4EIHixOEIlkLcobxBpDcIhaUptsApbYX/W0xKUH5qUil0vgrdYKtxMREKgil30+7eilDqyOAVvo8G2a33TonZrZ1S0h8gSNl966cDBjWkmKjzIiV1jcXD2tlptdI34v6VS4YOc6BaVdcOb/KSRkbF7WmL7dpV7ldpy/qFabazDNi8CnRP/zcIFB57mFLUvFgd+RIydbdjGiP6pSdQvvuCb7BXVMV5hXjPGaxC8Sl5FYxsCELxYFqESyGOU129aw4xD+PgNZ966NFTnKHYOYasIrP3JzlJRfsxpduYIL9forZP9za4qDfs0+KwG7zuWEX2u9ZN/Q2PaidbKCHEJXkb0AU70TavY5YwKI5X6WC/P2h5VzWk1Y/S13bOba+fs6TuOMfogJ36xpZ+dO3fsOUD81C8ipjt2bHkfETvTOhYn/n6bXOLVtVr9b2fEsh5d7hK8jPhnGn19P55D0zump7UPcOKjtvNg/F800m6emmKb+vqa7yZG3+hoZ8lbHhwceCPT2N2WvnYz4sOMaT/VND7RaNC7ieizXakSjAZrlfoqqx2FQuGvZs2m58x/nz2rccAOpmlzJrXOqDBn767VRmc2PZouCF6P7z+4rU0AgheLIVQCeRS8fk5dMzsj6tQGQ9AKG4wcW/FvRGu9PSLi2OA+xocrlbFxbz0k4y5LHV4poxjROdVq/QfWxnEJXiejGfFPV6tjVzi9vmLFiiO0vumOHFeRLjBSrX/IGoUslQaWc2IdYo8z/tGRypgo02Z7tWrL/sGcdiA2wU1O0lFGOTc7wcsZ/8RIZexb5k5LpWVf5cQv7BjIJnpdLA6sJMbM+wRuq1XrbzfuK5UK3+NEYn7G1WhqzVNWXXm12OTXvlqHdYhSb+aSbk/XqnVRj7njshmzvUGtVBr4Lif2YZMqWVur1LsOk4HglXr00KgHAQheLI/QCSCtwTvioESvVcwKi8SmMfFfCFrv/nG6U4jdkWo9URF6r7P0IniJqEGMXW49CStpgldnwulUp+oKg6XC5xjRF03snt644ZnDbrnllmk7nh0niM08W7+qVutdUV1xr3687o4FIlreuYnLUp7LRvA29luweI41daBYXPYuYvxnZrt275pecM011+w0/60rgvvSSWe1Wv2VrTZig9xkR94v5+fVamP/226+dl8IrDWPWxsVxUl97VQSc5tisfB6YtRxTLDG+FHWzXQQvF6fYNxnEIDgxVoInUAeo7zBpDXMuKaX6O0lZCFmQ1/a9gOkOF/XbkJmwStKqhE1ulIapvrmzGXN6cO0ae14YvyfjKgfI7asWh2tG/0mUvASbePN/qNGRka6jk8eLBW+zYjOM3H5Zq1a/wenlTVYWvZxRvz69uudYrLjNptIKnHGPzlSGetIObARvPfXqvXjrTYMDl7yOqZpesmy1mUbbbVJL9hZq9YXiHtaB3E8Y+57z+zmgVdffrW+CdF2fZQKz5pTMqzR/Va1jR+b7u2yv1gqCMH7+r1teL1WHVtmHg+CN6b3swwNC8GbIWcmeSq/+sO59x2/zwZR87Hrp6ok2+3VNtW0ht18bkeE48XpBffvaC7YW+1hy/67T7h/p352MSKyXr0S/n1pq7ErQ0S1SsPFF188f+68vp8Q0X8V/fNm/2JDTMYseBu8yd7LNP4lIjqxY+6MbH9GLxYL/06M3mK0dTsu2eb427aYNI/nUI/Wtg6tjeAVJctOtvrO5sjex2rV+lHWdpdddtH+k1P9ZnHftnFwsHAy0+g3xj0ivaJarR/Ya50Uhwq/IE7v2MuIXzJSHbvG+P+lUkGUYzvV1MfTjPTT+NpXk+jvLEc7795vwY79y+XrdxuNIHhlnla06UUAghfrIxICZ6/5hqgn6XCx8X21XR1noh84a+f9i/t3upb3et0+f3nc6HS//l2mCIG/aW1vzNNP/HnwxYNtbdjSmP/45qn5juM1pv9y/zO7trTv/fPkMR07wzdMHdEVoXGz+D0P/27tMVs36WkIuJJFICv5unZUVQWv6GNoaNmxTc71cmSM+Luq1bFfiH/HKXgZaW+pVq/6dSuKKd43OqoucKJ/HqnWhRhuX91ijoZGqvWq0+qzCsaXUHQJXocyY49MTdKx9Xp9j7XvaAVvV5R4d61an9fraSsWC78mRm822nDiF41Ux66d8ffFRzOt72FPTyujC2qV+teNeyF4PVHETSYCELxYDpEQOHvNN9e8VHkgF9FdAXTzVD/dPqH/Shj4BeEbOFJ/HWYshcEKw4vgFX0US4VdQlQyoi9Uq/WVsQpei3gqFpctJcb/n3WuogrFyJX1dkWEUmnZ1ebqC5zoFyPV+rucFkypNHAZJ3a56fUHa9X6scb/F9HVqan+hy11gBvN6b5Xr1q1qv3l3dx/lIK3FZ3vODnNpfZyV84v1+hvR66srxZzsPJTfNAeqVXrr4bgVaSG5o4EIHixOCIh8L41X1/CSNNrUubl+tnmhesnuaYcyZXhI0SvaIeIrwytcNpkOaprJuZV8JZKhc26sOO8XKuN6bVWzYKqOd3316tWrXrIyTuDpYG7GLFTgjx4olNIFoY50ect4++cmqmQsEkX6EMDf884E+XMjKvBiP9NtTomKit0XJdeeumCRmPX78yluhixb1Wro59oNWTFYmGtOUVC/ztvvrdWu/qnThyiFLzChrbfDIMYfbtWqYsjjLuuwaGBf2CcdZyC16dNH3Tlldc8c0H5gn3m75gjDpdwPPjC7ck0Dt8Q7RDhdaOF190IQPC6EcLrgRHIW5T3mcnZ69dt2zcUwWt2CsRvYEtUvqOMR3XNILwI3lbJKl00kqWuarFUELn8Czlj7xupjP6rHXRznmlYglc/srdYuN38c7xu7ksHKIxUx0TOKW9VUhART7No2zbdrx131Veu2mDY3mp3JxGd0DEfTm+o1er3ib8Vh5Z9gTjvOM2NEV1ZrdYv7bXwoha8g6XC5y2HQQhUV9Sqo58222mzGU28vKZWrb9Nn2+x8I/ESE9taF27OTOVH7OZNONcVIOY336J8x/XamOiTjEEr/y7E1o6EIDgxdKIjEAeo7w/3iQOmoruMsTvYdu3LZzXmAxdbEc3s2SMlKVyY7JEVQWvXoZq+5ZxI5JpPULYdJBDWxyZbSkUCnNmzSZRXkvf9Bai4KVLPnPJ4jmTmjhFzfH0NTuhqtvL6XbS2DhxLnL5z+o6iY3T7bVa/a2i6eCnCm9hTfp3K3ORIsGIdZU444z/cuH8xdeWy+VG1IK39WVlo83Jck8TZz8njW8jTiKt4zXW+ZgjssVSQeTuHm20MU6O67Xu7EqUGesHEV7ZJxbtnAhA8GJtREqg9+a1SE2JZLA1z+83MdHo69iQF8nArUEggIOhnZf0BTtaHSetNdk7GWs8aG03PWsWY9ONQxhnJzBin9tblqw7gjlYKpQYUWVGM7KRhQsOuFQIOyGUt23b8kam0XXmElVhCl5hw4qhS07VuCais+2LEz05Uq0fJv6g27Vj850ivUJhNW3bM7v5KqOcV7FU+JUh4GX7YETnVqv170YteIV9TjnOvWwXRwVXq/Uv6wK/+7S2P9Sq9dfKzL1YKogDLtqRck4zGwUheGXooY3LGgUgEIiOwPvXfKPMifQNLHm4wty85pXf0c9vXv+azc+I3DpCJNidYhZLjbnPem8LjwdPiNjsT2vV0f9mPZFMTyUoLfs/RPw9xihCYDKiVxipA6IcFuf0W2J0FiN+c7U69hElm7uii3tLo9n1UyoNXMqJfcX0WkdJr1bu8Y1E9D4JO/7EqHlWtXr1E0Zba3kziT5EZFsXkIODg4cwrfGkidWNI9X6/7D2oecQT+/a3v47p/bxxOa25XK5f/uOLSJNw6hS4VDXd9k7mMZF/dyOahZ2thuidO98Bz5GjAleMxenj9dq9W/LzLtYHDiHGPv+3nv55bXa2GfNFT5ar0mLaJlx0Sb7BBDhzb6PEzfDvEV5w9y8FqRzzUIYYljIMjZcq4yaj2ANEndq+iqXy7O379gifuJ+mZvRQrgS0QOcNb+4qnL1Oqf2ep87t3ydcXq3tWIBI7qKsTkrm3yPKGt2JDGq1Sr1ktvY5tfFqWOc8a8xogXE2FdqlVFz5QTbrlqnqok81SebGv/kqivH7rA2LJUKH+REIuf2JOtrumhnVN25fc/V11133ZT59VJp+Vs5NW+2HMPba0r3aWzqHZXKtc+JRoOlwr+wmXH/2JzuO8dps1+xuGyIGBcnwz3Nm/ThkZH6/7cbpFRa9klOfOSlPWo7iLPzarXR2+zarVix4iCtr/EZIvY/7YSviL5zTl+u1ep6GUfjaqVFPCJSRRjRugULFp9uPRmux+RZcajw81Zt34586VKp8FlRPo44PUfEzq/VRnO1EVrlGUDbbgIQvFgVkRPA5rXIkQcyoBDEoiMjOmyIYvHfLOUL5zl9IZCFotjJ8k8vP7xvih/KeeO5kZFrRD4tb+3wf0F0xRkVRir1McVuQ22+YsWKRZo2fSTX6FBOzc2zGH9MVCYIddAYOz/nnHP6XvnKlx8uvoBMT2uzOdeeWLRo4jHzwRA25rHBwcH97U6wk5mKYLxo0aLtCkJZplu0yTEBCN4cOz+uqedt81oS0xrC9r0hjq0C2RhXpFLY2RCkcH5e67OtayrGnSTWkVf9l75ZE/tS84nXNHaXK5Wx8bD5oP/eBEqlZQVOfFS06u+jw664ot7+SR/sQAAEQMALAQheL9Rwj28CeYvyrt668PEXpjXXk+N8g81KB5ueI3ru2ehmw/hSKpchdCMgfsEFF8yaM2fOIqPWrXXIwaFlH2Kcf6/199tq1frbIzALQ4AACGScAARvxh2c1OnlLcobVU3epPpb2q4XXiDa9CyR+G8UF6NhKq/MfZ5uFKiNMUqlwvc40YdEWS+u8Ws1Tvf29dH2qSYt0TidxYkZhxzsnG5oR1911VURfvOJkgTGAgEQiJIABG+UtDFWB4G8RXnTsnktlmUatdAlNk6sOYyobvTeLhYLdWI00HNkThuazb539DqJLXrLMSIIgECaCUDwptl7GbA9TxUbEOW1WbAQuhl4itWnoNd5pWaBiJ1IjA5ulSPbxoh+32T86wvnH3hTuVyeVO8Zd4AACICAPQEIXqyMWAnkrS5v1CevxercXoNHLnT1I7uQvpDYBQHDQAAEQCBcAhC84fJF7xIE8hTljfvkNQl3hN8k8g1pELrhOxUjgAAIgECyCUDwJts/ubAuT1HePJYoay9iCN1cPM+YJAiAAAgkkQAEbxK9kkOb8rSBLVclypC6kMOnGVMGARAAgeQRgOBNnk9yaVGeypTlYvMahG4un2NMGgRAAASSSgCCN6meyaFdeUptyGyJMgjdHD65mDIIgAAIJJ8ABG/yfZQrC/OS2pC5KC+Ebq6eU0wWBEAABNJGAII3bR7LuL15Sm1IfZRXiNwXX4j2CGAcGJHxdwBMDwRAAATCIQDBGw5X9OqDQF5SG1Ib5Y0jmguh6+OJwq0gAAIgAAIQvFgDiSSQl9SGVEV5IXQT+azAKBAAARAAAXcCELzujNAiBgJ5SW1IfJQ3FpHbOhWN+DiVy+MxLD8MCQIgAAIgkDECELwZc2iWppOX1IZERnljEbpsnFhzGCI3S08x5gICIAACySAAwZsMP8AKBwJ5EL2JifLGInKF4yF08QYAAiAAAiAQLgEI3nD5ovcACOQhnzfWKG8sQhciN4BHA12AAAiAAAhIEoDglQSFZvESyLrojTzKG5vI5WsJubnxPkwYHQRAAARySACCN4dOT+OU87CJLfQobywiFykLaXzeYDMIgAAIZI0ABG/WPJrh+WRd9G6e6qfbJxYE60EhcsW16Vki49/BjuDQG1IWIsGMQUAABEAABKQIQPBKYUKjJBHIcnrD6q0LH39hWjvCN+9YorkQub79hg5AAARAAARCIQDBGwpWdBo2gayKXl9RXojcsJcd+gcBEAABEEgpAQjelDoOZhNltWTZmuf3m5ho9C2S8nGcIlcYiIMhpNyERiAAAiAAAvESgOCNlz9G90kgi6LXNcobp8iFwPW5YnE7CIAACIBAHAQgeOOgjjEDJSA2s2mkLeFEKwPtOMbO1u+Y98xju+e+om1C5CJX5OOihFiMSwBDgwAIgAAIBEgAgjdAmOgqXgIi2issSLvw3Tyxhx56fDttnr2I6IWdEVZXwKazeFcwRgcBEAABEAiLAARvWGTRb2wE0pjm0Ba5E3si5IYoboSwMRQIgAAIgECMBCB4Y4SPocMlMCN82Rkvney1JNyR1HsXAlf8b1Prv+o9qN7BxvU7WHNY/y9ycVUBoj0IgAAIgECKCUDwpth5MF2eQBKivtFGcU0CF+JWfqGgJQiAAAiAQCYJQPBm0q2YlBOBKDe4TeyYmmhMNxfp+bihpiogeosVDwIgAAIgAAK9CEDwYn3kmsDejW7BpD4YUVwBNXiRawhbVE/I9aLF5EEABEAABJQJQPAqI8MNWSZgRIDFHGXyf4ON4rYErRjcKAlmwEZaQpaXHeYGAiAAAiAQMgEI3pABo/vsEBBieNvOxvkv7GocsfHZXQvFzJ7evHtCeoa6iDUuPrOJDIJWGh8aggAIgAAIgIBXAhC8XsnhPhAAARAAARAAARAAgVQQgOBNhZtgJAiAAAiAAAiAAAiAgFcCELxeyeE+EAABEAABEAABEACBVBCA4E2Fm2AkCIAACIAACIAACICAVwIQvF7J4T4QAAEQAAEQAAEQAIFUEIDgTYWbYCQIgAAIgAAIgAAIgIBXAv8JbHJIx7R36goAAAAASUVORK5CYII=;" parent="1" vertex="1">
          <mxGeometry x="216.24" y="133" width="157.51" height="45" as="geometry" />
        </mxCell>
      </root>
    </mxGraphModel>
  </diagram>
</mxfile>
